<svg xmlns="http://www.w3.org/2000/svg" width="36" height="42" viewBox="0 0 36 42">
<defs>
<linearGradient id="ivory" x1="0" y1="0" x2="1" y2=".35"><stop stop-color="#ddd4c3"/><stop offset=".3" stop-color="#fffdf5"/><stop offset=".65" stop-color="#f4eee1"/><stop offset="1" stop-color="#c6bcaa"/></linearGradient>
<linearGradient id="velvet" x1="0" y1="0" x2="1" y2=".2"><stop stop-color="#3c1420"/><stop offset=".45" stop-color="#78293b"/><stop offset="1" stop-color="#451822"/></linearGradient>
<linearGradient id="gold"><stop stop-color="#967140"/><stop offset=".5" stop-color="#dbc291"/><stop offset="1" stop-color="#9b7544"/></linearGradient>
</defs>
<g stroke-linecap="round" stroke-linejoin="round">
<path d="M12.2 30.4C9 27.7 7.3 24.9 6.2 21.7l-.7-2c-.6-1.8 1.5-2.7 2.7-1.3l4.1 4.4V4.3c0-2.4 3.1-2.4 3.1 0v13c.5-2.2 3.4-2.1 3.6.4.8-1.6 3.4-.6 3.4 1.2 1.1-1.3 3.2 0 3.2 2.1v3.7c0 2.3-1.5 4.1-3.5 6.4Z" fill="url(#ivory)" stroke="#716457" stroke-width=".75"/>
<path d="m15.4 17.3v7m3.6-6.6v7m3.4-5.8v6.2m-10.1-2.3q3.2.6 3.6 3m-2.7 2.2 5.6-.2" fill="none" stroke="#b9ad98" stroke-width=".55"/>
<path d="m12 30 11 .7-.5 10-10.7-.7Z" fill="url(#velvet)" stroke="#593128" stroke-width=".65"/>
<path d="m12 30 11 .7-.12 1.5-10.95-.7Z" fill="url(#gold)"/>
<path d="m13 33-.2 6.1m8-5.6-.3 6" stroke="#a56864" stroke-width=".45" opacity=".6"/>
<path d="m12 39.1 10.5 .7" stroke="url(#gold)" stroke-width=".7"/>
<path d="m17.4 33.9 1 1.2-.2 1.3-1.1-.1-.3-1.3Z" fill="url(#gold)" stroke="#876436" stroke-width=".4"/>
</g></svg>