<svg xmlns="http://www.w3.org/2000/svg" width="120" height="120" fill="none" viewBox="0 0 120 120"><path stroke="#ac874d" stroke-width=".7" d="M0 0H120V120H0Z"/><path stroke="#345d68" stroke-width="1.1" d="M60 0L120 60 60 120 0 60Z"/><polygon fill="#345d68" fill-opacity=".35" stroke="#345d68" stroke-width="1.3" points="60 11 73.39 27.66 94.65 25.35 92.34 46.61 109 60 92.34 73.39 94.65 94.65 73.39 92.34 60 109 46.61 92.34 25.35 94.65 27.66 73.39 11 60 27.66 46.61 25.35 25.35 46.61 27.66"/><polygon stroke="#ac874d" stroke-width="1" points="60 20 70.72 34.13 88.28 31.72 85.87 49.28 100 60 85.87 70.72 88.28 88.28 70.72 85.87 60 100 49.28 85.87 31.72 88.28 34.13 70.72 20 60 34.13 49.28 31.72 31.72 49.28 34.13"/><polygon fill="#a56346" fill-opacity=".4" stroke="#754252" stroke-width="1" points="60 32 66.12 45.22 79.8 40.2 74.78 53.88 88 60 74.78 66.12 79.8 79.8 66.12 74.78 60 88 53.88 74.78 40.2 79.8 45.22 66.12 32 60 45.22 53.88 40.2 40.2 53.88 45.22"/><polygon stroke="#a56346" points="60 43 68.49 51.51 77 60 68.49 68.49 60 77 51.51 68.49 43 60 51.51 51.51"/><circle cx="60" cy="60" r="6" fill="#ac874d" fill-opacity=".5"/><g transform="rotate(0 60 60)"><path fill="#ac874d" d="M60 17l3 5-3 5-3-5Z"/><path stroke="#754252" stroke-linecap="round" d="M60 5v5"/><circle cx="60" cy="33" r="1.3" fill="#754252"/></g><g transform="rotate(45 60 60)"><path fill="#ac874d" d="M60 17l3 5-3 5-3-5Z"/><path stroke="#754252" stroke-linecap="round" d="M60 5v5"/><circle cx="60" cy="33" r="1.3" fill="#754252"/></g><g transform="rotate(90 60 60)"><path fill="#ac874d" d="M60 17l3 5-3 5-3-5Z"/><path stroke="#754252" stroke-linecap="round" d="M60 5v5"/><circle cx="60" cy="33" r="1.3" fill="#754252"/></g><g transform="rotate(135 60 60)"><path fill="#ac874d" d="M60 17l3 5-3 5-3-5Z"/><path stroke="#754252" stroke-linecap="round" d="M60 5v5"/><circle cx="60" cy="33" r="1.3" fill="#754252"/></g><g transform="rotate(180 60 60)"><path fill="#ac874d" d="M60 17l3 5-3 5-3-5Z"/><path stroke="#754252" stroke-linecap="round" d="M60 5v5"/><circle cx="60" cy="33" r="1.3" fill="#754252"/></g><g transform="rotate(225 60 60)"><path fill="#ac874d" d="M60 17l3 5-3 5-3-5Z"/><path stroke="#754252" stroke-linecap="round" d="M60 5v5"/><circle cx="60" cy="33" r="1.3" fill="#754252"/></g><g transform="rotate(270 60 60)"><path fill="#ac874d" d="M60 17l3 5-3 5-3-5Z"/><path stroke="#754252" stroke-linecap="round" d="M60 5v5"/><circle cx="60" cy="33" r="1.3" fill="#754252"/></g><g transform="rotate(315 60 60)"><path fill="#ac874d" d="M60 17l3 5-3 5-3-5Z"/><path stroke="#754252" stroke-linecap="round" d="M60 5v5"/><circle cx="60" cy="33" r="1.3" fill="#754252"/></g><g transform="translate(0 0)"><circle r="20" stroke="#a56346"/><circle r="14" stroke="#ac874d" stroke-dasharray="1 3"/><polygon fill="#754252" fill-opacity=".25" points="0 -10 3.54 -3.54 10 0 3.54 3.54 0 10 -3.54 3.54 -10 0 -3.54 -3.54"/></g><g transform="translate(120 0)"><circle r="20" stroke="#a56346"/><circle r="14" stroke="#ac874d" stroke-dasharray="1 3"/><polygon fill="#754252" fill-opacity=".25" points="0 -10 3.54 -3.54 10 0 3.54 3.54 0 10 -3.54 3.54 -10 0 -3.54 -3.54"/></g><g transform="translate(0 120)"><circle r="20" stroke="#a56346"/><circle r="14" stroke="#ac874d" stroke-dasharray="1 3"/><polygon fill="#754252" fill-opacity=".25" points="0 -10 3.54 -3.54 10 0 3.54 3.54 0 10 -3.54 3.54 -10 0 -3.54 -3.54"/></g><g transform="translate(120 120)"><circle r="20" stroke="#a56346"/><circle r="14" stroke="#ac874d" stroke-dasharray="1 3"/><polygon fill="#754252" fill-opacity=".25" points="0 -10 3.54 -3.54 10 0 3.54 3.54 0 10 -3.54 3.54 -10 0 -3.54 -3.54"/></g></svg>